#N canvas 291 185 385 308 10;
#X obj 15 51 inlet;
#X obj 16 156 outlet;
#X obj 65 157 outlet;
#X obj 15 78 random 3;
#X obj 15 111 sel 0 1 2;
#X obj 116 158 outlet;
#X text 11 13 randomly bang at outlet 1 \, 2 or 3;
#X connect 0 0 3 0;
#X connect 3 0 4 0;
#X connect 4 0 1 0;
#X connect 4 1 2 0;
#X connect 4 2 5 0;
