#N canvas 477 90 1744 902 10;
#X obj 659 44 inlet;
#X text 702 47 preset nbr;
#X obj 294 100 until;
#X obj 294 128 f;
#X obj 332 128 + 1;
#X obj 332 154 mod 16;
#X obj 294 181 +;
#X obj 103 330 == 0;
#X obj 337 183 s \$0-getprstnbr;
#X obj 103 304 r \$0-getprstnbr;
#X obj 30 374 spigot;
#X obj 293 215 s \$0-getprstnbrstepped;
#X obj 30 330 tabread \$1;
#X obj 30 280 r \$0-getprstnbrstepped;
#X obj 287 304 r \$0-getprstnbr;
#X obj 214 374 spigot;
#X obj 214 330 tabread \$1;
#X obj 214 280 r \$0-getprstnbrstepped;
#X obj 287 330 == 1;
#X obj 470 304 r \$0-getprstnbr;
#X obj 397 374 spigot;
#X obj 397 330 tabread \$1;
#X obj 397 280 r \$0-getprstnbrstepped;
#X obj 470 330 == 2;
#X obj 657 302 r \$0-getprstnbr;
#X obj 584 372 spigot;
#X obj 584 328 tabread \$1;
#X obj 584 278 r \$0-getprstnbrstepped;
#X obj 657 328 == 3;
#X obj 883 300 r \$0-getprstnbr;
#X obj 810 370 spigot;
#X obj 810 326 tabread \$1;
#X obj 810 276 r \$0-getprstnbrstepped;
#X obj 883 325 == 4;
#X obj 1075 297 r \$0-getprstnbr;
#X obj 1002 367 spigot;
#X obj 1002 323 tabread \$1;
#X obj 1002 273 r \$0-getprstnbrstepped;
#X obj 1075 322 == 5;
#X obj 1252 300 r \$0-getprstnbr;
#X obj 1179 370 spigot;
#X obj 1179 326 tabread \$1;
#X obj 1179 276 r \$0-getprstnbrstepped;
#X obj 1252 325 == 6;
#X obj 1450 296 r \$0-getprstnbr;
#X obj 1377 366 spigot;
#X obj 1377 322 tabread \$1;
#X obj 1377 272 r \$0-getprstnbrstepped;
#X obj 1450 321 == 7;
#X obj 97 559 r \$0-getprstnbr;
#X obj 24 629 spigot;
#X obj 24 585 tabread \$1;
#X obj 24 535 r \$0-getprstnbrstepped;
#X obj 97 585 == 8;
#X obj 290 557 r \$0-getprstnbr;
#X obj 217 627 spigot;
#X obj 217 583 tabread \$1;
#X obj 217 533 r \$0-getprstnbrstepped;
#X obj 290 583 == 9;
#X obj 494 555 r \$0-getprstnbr;
#X obj 421 625 spigot;
#X obj 421 581 tabread \$1;
#X obj 421 531 r \$0-getprstnbrstepped;
#X obj 494 581 == 10;
#X obj 684 554 r \$0-getprstnbr;
#X obj 611 624 spigot;
#X obj 611 580 tabread \$1;
#X obj 611 530 r \$0-getprstnbrstepped;
#X obj 684 580 == 11;
#X obj 864 553 r \$0-getprstnbr;
#X obj 791 623 spigot;
#X obj 791 579 tabread \$1;
#X obj 791 529 r \$0-getprstnbrstepped;
#X obj 864 579 == 12;
#X obj 1049 552 r \$0-getprstnbr;
#X obj 976 622 spigot;
#X obj 976 578 tabread \$1;
#X obj 976 528 r \$0-getprstnbrstepped;
#X obj 1049 578 == 13;
#X obj 1241 549 r \$0-getprstnbr;
#X obj 1168 619 spigot;
#X obj 1168 575 tabread \$1;
#X obj 1168 525 r \$0-getprstnbrstepped;
#X obj 1241 575 == 14;
#X obj 1419 546 r \$0-getprstnbr;
#X obj 1346 616 spigot;
#X obj 1346 572 tabread \$1;
#X obj 1346 522 r \$0-getprstnbrstepped;
#X obj 1419 572 == 15;
#X obj 543 135 * 16;
#X msg 295 76 16;
#X obj 283 153 t f f;
#X obj 655 75 t f f;
#X obj 1698 799 outlet;
#X obj 32 478 s \$0-sldrr0;
#X obj 210 475 s \$0-sldrr1;
#X obj 389 476 s \$0-sldrr2;
#X obj 802 472 s \$0-sldrr4;
#X obj 994 469 s \$0-sldrr5;
#X obj 1171 472 s \$0-sldrr6;
#X obj 1369 468 s \$0-sldrr7;
#X obj 26 733 s \$0-sldrr8;
#X obj 219 731 s \$0-sldrr9;
#X obj 423 729 s \$0-sldrr10;
#X obj 613 728 s \$0-sldrr11;
#X obj 793 727 s \$0-sldrr12;
#X obj 978 726 s \$0-sldrr13;
#X obj 1170 723 s \$0-sldrr14;
#X obj 1348 720 s \$0-sldrr15;
#X obj 584 470 s \$0-sldrr3;
#X obj 54 816 outlet;
#X obj 102 817 outlet;
#X obj 151 817 outlet;
#X obj 199 818 outlet;
#X obj 277 819 outlet;
#X obj 325 820 outlet;
#X obj 374 820 outlet;
#X obj 422 821 outlet;
#X obj 495 822 outlet;
#X obj 543 823 outlet;
#X obj 592 823 outlet;
#X obj 640 824 outlet;
#X obj 710 823 outlet;
#X obj 758 824 outlet;
#X obj 807 824 outlet;
#X obj 855 825 outlet;
#X connect 0 0 92 0;
#X connect 2 0 3 0;
#X connect 3 0 4 0;
#X connect 3 0 91 0;
#X connect 4 0 5 0;
#X connect 5 0 3 1;
#X connect 6 0 11 0;
#X connect 7 0 10 1;
#X connect 9 0 7 0;
#X connect 10 0 94 0;
#X connect 10 0 110 0;
#X connect 12 0 10 0;
#X connect 13 0 12 0;
#X connect 14 0 18 0;
#X connect 15 0 95 0;
#X connect 15 0 111 0;
#X connect 16 0 15 0;
#X connect 17 0 16 0;
#X connect 18 0 15 1;
#X connect 19 0 23 0;
#X connect 20 0 96 0;
#X connect 20 0 112 0;
#X connect 21 0 20 0;
#X connect 22 0 21 0;
#X connect 23 0 20 1;
#X connect 24 0 28 0;
#X connect 25 0 109 0;
#X connect 25 0 113 0;
#X connect 26 0 25 0;
#X connect 27 0 26 0;
#X connect 28 0 25 1;
#X connect 29 0 33 0;
#X connect 30 0 97 0;
#X connect 30 0 114 0;
#X connect 31 0 30 0;
#X connect 32 0 31 0;
#X connect 33 0 30 1;
#X connect 34 0 38 0;
#X connect 35 0 98 0;
#X connect 35 0 115 0;
#X connect 36 0 35 0;
#X connect 37 0 36 0;
#X connect 38 0 35 1;
#X connect 39 0 43 0;
#X connect 40 0 99 0;
#X connect 40 0 116 0;
#X connect 41 0 40 0;
#X connect 42 0 41 0;
#X connect 43 0 40 1;
#X connect 44 0 48 0;
#X connect 45 0 100 0;
#X connect 45 0 117 0;
#X connect 46 0 45 0;
#X connect 47 0 46 0;
#X connect 48 0 45 1;
#X connect 49 0 53 0;
#X connect 50 0 101 0;
#X connect 50 0 118 0;
#X connect 51 0 50 0;
#X connect 52 0 51 0;
#X connect 53 0 50 1;
#X connect 54 0 58 0;
#X connect 55 0 102 0;
#X connect 55 0 119 0;
#X connect 56 0 55 0;
#X connect 57 0 56 0;
#X connect 58 0 55 1;
#X connect 59 0 63 0;
#X connect 60 0 103 0;
#X connect 60 0 120 0;
#X connect 61 0 60 0;
#X connect 62 0 61 0;
#X connect 63 0 60 1;
#X connect 64 0 68 0;
#X connect 65 0 104 0;
#X connect 65 0 121 0;
#X connect 66 0 65 0;
#X connect 67 0 66 0;
#X connect 68 0 65 1;
#X connect 69 0 73 0;
#X connect 70 0 105 0;
#X connect 70 0 122 0;
#X connect 71 0 70 0;
#X connect 72 0 71 0;
#X connect 73 0 70 1;
#X connect 74 0 78 0;
#X connect 75 0 106 0;
#X connect 75 0 123 0;
#X connect 76 0 75 0;
#X connect 77 0 76 0;
#X connect 78 0 75 1;
#X connect 79 0 83 0;
#X connect 80 0 107 0;
#X connect 80 0 124 0;
#X connect 81 0 80 0;
#X connect 82 0 81 0;
#X connect 83 0 80 1;
#X connect 84 0 88 0;
#X connect 85 0 108 0;
#X connect 85 0 125 0;
#X connect 86 0 85 0;
#X connect 87 0 86 0;
#X connect 88 0 85 1;
#X connect 89 0 6 1;
#X connect 90 0 2 0;
#X connect 91 0 6 0;
#X connect 91 1 8 0;
#X connect 92 0 89 0;
#X connect 92 0 90 0;
#X connect 92 1 93 0;
