#N canvas 97 24 1102 692 10;
#X obj 410 109 outlet;
#X obj 489 110 outlet;
#X obj 410 25 r towriteprst-\$0;
#X obj 489 48 r towriteindex-\$0;
#X obj 50 7 inlet;
#X obj 47 109 sel 0 1 2 3 4 5 6 7 8 9 10 11 12 13 14 15;
#X obj 25 221 t f b;
#X obj 132 373 t f b;
#X obj 231 322 t f b;
#X obj 462 289 t f b;
#X msg 52 246 0;
#X msg 160 400 4;
#X msg 262 363 8;
#X msg 488 315 12;
#X obj 26 190 100;
#X obj 397 173 decide;
#X text 548 201 making the main kickdrum patterns here;
#X obj 463 241 random 3;
#X obj 463 264 + 97;
#X obj 368 273 t f b;
#X msg 394 299 12;
#X obj 369 225 random 5;
#X obj 369 248 + 1;
#X msg 345 402 11;
#X msg 395 392 14;
#X msg 564 266 0;
#X msg 585 339 11;
#X obj 320 370 t f b;
#X obj 368 367 t f b;
#X obj 564 302 t f b;
#X obj 207 235 random 2;
#X obj 207 258 + 98;
#X obj 96 541 t f b;
#X msg 123 566 2;
#X obj 269 545 t f b;
#X msg 296 570 6;
#X obj 444 543 t f b;
#X msg 471 568 10;
#X obj 595 544 t f b;
#X msg 622 569 14;
#X text 727 546 offbeat strata 1;
#X obj 444 518 random 25;
#X obj 133 165 random 3;
#X obj 133 188 + 97;
#X obj 72 702 t f b;
#X text 727 713 offbeat strata 2;
#X obj 72 677 random 15;
#X msg 99 727 3;
#X obj 244 704 t f b;
#X msg 271 729 7;
#X obj 244 679 random 20;
#X obj 459 698 t f b;
#X msg 486 723 13;
#X obj 592 700 t f b;
#X msg 619 725 15;
#X obj 459 673 random 30;
#X obj 592 675 random 30;
#X obj 595 519 random 50;
#X obj 291 213 random 3;
#X obj 293 238 + 97;
#X obj 269 520 random 45;
#X obj 96 516 random 40;
#X obj -19 298 s towriteprst-\$0;
#X obj 16 272 s towriteindex-\$0;
#X obj 123 428 s towriteprst-\$0;
#X obj 161 465 s towriteindex-\$0;
#X obj 225 400 s towriteprst-\$0;
#X obj 257 430 s towriteindex-\$0;
#X obj 473 415 s towriteprst-\$0;
#X obj 583 411 s towriteindex-\$0;
#X obj 122 589 s towriteindex-\$0;
#X obj 52 618 s towriteprst-\$0;
#X obj 225 622 s towriteprst-\$0;
#X obj 295 593 s towriteindex-\$0;
#X obj 434 616 s towriteprst-\$0;
#X obj 470 591 s towriteindex-\$0;
#X obj 621 592 s towriteindex-\$0;
#X obj 585 617 s towriteprst-\$0;
#X obj 98 750 s towriteindex-\$0;
#X obj 28 779 s towriteprst-\$0;
#X obj 200 781 s towriteprst-\$0;
#X obj 270 752 s towriteindex-\$0;
#X obj 415 775 s towriteprst-\$0;
#X obj 485 746 s towriteindex-\$0;
#X obj 618 748 s towriteindex-\$0;
#X obj 548 777 s towriteprst-\$0;
#X obj 50 54 until;
#X msg 50 30 16;
#X obj 50 78 mcounter 16;
#X text 116 13 feed it a bang \, get a techno kick pattern;
#X connect 2 0 0 0;
#X connect 3 0 1 0;
#X connect 4 0 87 0;
#X connect 5 0 14 0;
#X connect 5 2 61 0;
#X connect 5 3 46 0;
#X connect 5 4 42 0;
#X connect 5 6 60 0;
#X connect 5 7 50 0;
#X connect 5 8 30 0;
#X connect 5 10 41 0;
#X connect 5 12 15 0;
#X connect 5 13 55 0;
#X connect 5 14 57 0;
#X connect 5 15 56 0;
#X connect 6 0 62 0;
#X connect 6 1 10 0;
#X connect 7 0 64 0;
#X connect 7 1 11 0;
#X connect 8 0 66 0;
#X connect 8 1 12 0;
#X connect 9 0 68 0;
#X connect 9 1 13 0;
#X connect 10 0 63 0;
#X connect 11 0 65 0;
#X connect 12 0 67 0;
#X connect 13 0 69 0;
#X connect 14 0 6 0;
#X connect 15 0 21 0;
#X connect 15 0 58 0;
#X connect 15 1 17 0;
#X connect 15 1 25 0;
#X connect 17 0 18 0;
#X connect 18 0 9 0;
#X connect 19 0 68 0;
#X connect 19 1 20 0;
#X connect 20 0 69 0;
#X connect 21 0 22 0;
#X connect 22 0 19 0;
#X connect 23 0 69 0;
#X connect 24 0 69 0;
#X connect 25 0 29 0;
#X connect 26 0 69 0;
#X connect 27 0 68 0;
#X connect 27 1 23 0;
#X connect 28 0 68 0;
#X connect 28 1 24 0;
#X connect 29 0 68 0;
#X connect 29 1 26 0;
#X connect 30 0 31 0;
#X connect 31 0 8 0;
#X connect 32 0 71 0;
#X connect 32 1 33 0;
#X connect 33 0 70 0;
#X connect 34 0 72 0;
#X connect 34 1 35 0;
#X connect 35 0 73 0;
#X connect 36 0 74 0;
#X connect 36 1 37 0;
#X connect 37 0 75 0;
#X connect 38 0 77 0;
#X connect 38 1 39 0;
#X connect 39 0 76 0;
#X connect 41 0 36 0;
#X connect 42 0 43 0;
#X connect 43 0 7 0;
#X connect 44 0 79 0;
#X connect 44 1 47 0;
#X connect 46 0 44 0;
#X connect 47 0 78 0;
#X connect 48 0 80 0;
#X connect 48 1 49 0;
#X connect 49 0 81 0;
#X connect 50 0 48 0;
#X connect 51 0 82 0;
#X connect 51 1 52 0;
#X connect 52 0 83 0;
#X connect 53 0 85 0;
#X connect 53 1 54 0;
#X connect 54 0 84 0;
#X connect 55 0 51 0;
#X connect 56 0 53 0;
#X connect 57 0 38 0;
#X connect 58 0 59 0;
#X connect 59 0 27 0;
#X connect 59 0 28 0;
#X connect 60 0 34 0;
#X connect 61 0 32 0;
#X connect 86 0 88 0;
#X connect 87 0 86 0;
#X connect 88 0 5 0;
