#N canvas 0 23 1280 755 10;
#X msg 35 -11 \; pd dsp 0;
#X msg 35 -46 \; pd dsp 1;
#X obj 110 177 seq1;
#X obj 429 43 mcounter 16;
#X obj 429 23 metro 100;
#X obj 429 -19 tgl 15 0 empty empty empty 17 7 0 10 -262144 -1 -1 0
1;
#X floatatom 480 -16 5 0 0 0 - - -;
#X obj 643 11 mod 4;
#X obj 750 63 + 4;
#X msg 824 51 12;
#X msg 764 -108 0;
#X msg 769 -72 3;
#X msg 656 -21 2;
#X msg 801 -73 4;
#X msg 836 -71 8;
#X floatatom 747 106 5 0 0 0 - - -;
#X msg 729 -109 16;
#X obj 480 -71 loadbang;
#X msg 480 -41 118;
#X obj 109 318 seq2;
#X obj 662 286 noteout;
#X obj 626 394 noteout;
#X obj 626 360 makenote 100 5;
#X msg 614 324 38;
#X obj 862 168 ctlout 16;
#X obj 862 141 random 127;
#X obj 965 144 random 127;
#X obj 965 179 ctlout 32;
#X obj 111 470 seq3;
#X obj 591 577 noteout;
#X obj 591 543 makenote 100 5;
#X obj 1251 552 snapshot~;
#X obj 1253 495 osc~ 2;
#X floatatom 1311 583 5 0 0 0 - - -;
#X obj 1381 549 * 0.5;
#X obj 1381 575 + 0.5;
#X obj 1381 604 * 127;
#X obj 1379 638 int;
#X floatatom 1449 631 5 0 0 0 - - -;
#X obj 1379 658 ctlout 91;
#X obj 34 -100 loadbang;
#X floatatom 152 60 5 0 0 0 - - -;
#X floatatom 113 60 5 0 0 0 - - -;
#X obj 114 25 abl_link~ 4 0 4 120;
#X floatatom 429 66 5 0 0 0 - - -;
#X msg 114 -2 connect \$1;
#X floatatom 212 92 5 0 0 0 - - -;
#X obj 212 70 r #abl_link_num_peers;
#X floatatom 225 52 5 0 0 0 - - -;
#X msg 191 -2 tempo \$1;
#X floatatom 192 -49 5 0 0 0 - - -;
#X msg 192 -70 118;
#X msg 142 -70 1;
#X obj 162 -101 delay 2000;
#X obj 27 119 s linksteps;
#X obj 28 96 spigot;
#X floatatom 1016 -164 5 0 0 0 - - -;
#X obj 940 -164 ctlin 50 1;
#X obj 942 -131 zones;
#X floatatom 993 -131 5 0 0 0 - - -;
#X obj 647 -109 r linksteps;
#X obj 726 -181 loadbang;
#X obj 941 -102 sel 0 1 2 3 4 5 6 7;
#X obj 788 -158 r zone0;
#X obj 892 -50 s zone0;
#X obj 945 -50 s zone1;
#X obj 996 -51 s zone2;
#X msg 685 -24 0;
#X msg 796 12 2;
#X msg 825 9 4;
#X obj 688 128 s stepzones;
#X obj 660 -63 r zone1;
#X obj 800 -30 r zone2;
#X obj 893 -20 r zone3;
#X obj 1050 -52 s zone3;
#X msg 924 22 8;
#X obj 990 -13 r zone4;
#X msg 986 29 3;
#X obj 1108 -52 s zone4;
#X obj 1211 13 r linksteps;
#X floatatom 1210 39 5 0 0 0 - - -;
#X obj 1223 72 bng 15 250 50 0 empty empty empty 17 7 0 10 -262144
-1 -1;
#X obj 1221 96 random 16;
#X floatatom 1221 129 5 0 0 0 - - -;
#X text 1206 -18 random;
#X obj 1340 44 mod 2;
#X obj 1371 119 +;
#X obj 1414 79 random 4;
#X floatatom 1432 115 5 0 0 0 - - -;
#X obj 1438 144 * 4;
#X floatatom 1432 177 5 0 0 0 - - -;
#X floatatom 1358 166 5 0 0 0 - - -;
#X obj 1413 47 sel 0;
#X text 1332 -11 random qui se deplace par 4;
#X msg 1021 29 0;
#X obj 1173 -52 s zone5;
#X obj 1082 -14 r zone5;
#X msg 1215 258 1;
#X msg 1254 262 2;
#X msg 1294 262 3;
#X obj 1167 235 bng 15 250 50 0 empty empty empty 17 7 0 10 -262144
-1 -1;
#X obj 1246 153 s randomsteps;
#X obj 1390 208 s random4steps;
#X obj 1139 -11 r zone6;
#X obj 1225 -52 s zone6;
#X obj 22 152 r stepsequencercounts;
#X obj 1215 313 sel 1 2 3;
#X obj 1155 403 spigot;
#X obj 1094 337 r stepzones;
#X obj 1154 459 s stepsequencercounts;
#X msg 1184 367 1;
#X obj 1406 429 spigot;
#X obj 1232 428 spigot;
#X obj 1392 392 r randomsteps;
#X msg 1422 373 1;
#X msg 1270 376 1;
#X obj 1229 403 r random4steps;
#X msg 1169 339 0;
#X msg 1372 374 0;
#X msg 1240 380 0;
#X msg 889 22 1;
#X obj 1101 287 loadbang;
#X obj 536 311 s trig1;
#X obj 557 439 s trig2;
#X obj 556 616 s trig3;
#X obj 125 -27 tgl 15 0 empty empty empty 17 7 0 10 -262144 -1 -1 1
1;
#X obj 57 47 tgl 15 0 empty empty empty 17 7 0 10 -262144 -1 -1 0 1
;
#X obj 658 254 makenote 100 2;
#X msg 630 196 36;
#X msg 579 507 42;
#X floatatom 1063 -133 5 0 0 0 - - -;
#X msg 740 642 disconnect;
#X obj 732 669 netsend -u -b;
#X msg 741 618 connect localhost 5000;
#X obj 733 568 list prepend send;
#X obj 733 593 list trim;
#X text 835 642 don't send;
#X text 928 617 send as UDP;
#X msg 759 421 1;
#X obj 760 383 r trig1;
#X msg 795 447 0;
#X msg 907 418 1;
#X obj 953 417 delay 4;
#X msg 943 444 0;
#X obj 908 380 r trig2;
#X msg 1043 447 1;
#X obj 1089 446 delay 4;
#X msg 1079 473 0;
#X obj 1044 409 r trig3;
#X obj 904 488 oscformat 2;
#X obj 1040 517 oscformat 3;
#X obj 805 420 delay 4;
#X obj 757 491 oscformat kick1;
#X connect 2 1 128 0;
#X connect 2 1 122 0;
#X connect 3 0 44 0;
#X connect 4 0 3 0;
#X connect 5 0 4 0;
#X connect 6 0 4 1;
#X connect 7 0 8 0;
#X connect 8 0 15 0;
#X connect 8 0 70 0;
#X connect 9 0 8 1;
#X connect 10 0 8 1;
#X connect 11 0 7 1;
#X connect 12 0 7 1;
#X connect 13 0 7 1;
#X connect 14 0 7 1;
#X connect 16 0 7 1;
#X connect 17 0 18 0;
#X connect 18 0 6 0;
#X connect 19 1 23 0;
#X connect 19 1 123 0;
#X connect 22 0 21 0;
#X connect 22 1 21 1;
#X connect 23 0 22 0;
#X connect 25 0 24 0;
#X connect 26 0 27 0;
#X connect 28 1 129 0;
#X connect 28 1 124 0;
#X connect 30 0 29 0;
#X connect 30 1 29 1;
#X connect 31 0 33 0;
#X connect 31 0 34 0;
#X connect 32 0 31 0;
#X connect 34 0 35 0;
#X connect 35 0 36 0;
#X connect 36 0 37 0;
#X connect 37 0 38 0;
#X connect 37 0 39 0;
#X connect 40 0 1 0;
#X connect 40 0 53 0;
#X connect 43 0 42 0;
#X connect 43 0 55 0;
#X connect 43 1 41 0;
#X connect 43 3 48 0;
#X connect 45 0 43 0;
#X connect 47 0 46 0;
#X connect 49 0 43 0;
#X connect 50 0 49 0;
#X connect 51 0 50 0;
#X connect 52 0 125 0;
#X connect 53 0 51 0;
#X connect 53 0 52 0;
#X connect 55 0 54 0;
#X connect 57 0 56 0;
#X connect 57 0 58 0;
#X connect 58 0 59 0;
#X connect 58 0 62 0;
#X connect 60 0 7 0;
#X connect 61 0 16 0;
#X connect 61 0 10 0;
#X connect 62 0 64 0;
#X connect 62 1 65 0;
#X connect 62 2 66 0;
#X connect 62 3 74 0;
#X connect 62 4 78 0;
#X connect 62 6 95 0;
#X connect 62 7 104 0;
#X connect 63 0 16 0;
#X connect 63 0 10 0;
#X connect 63 0 97 0;
#X connect 67 0 8 1;
#X connect 68 0 7 1;
#X connect 69 0 8 1;
#X connect 71 0 12 0;
#X connect 71 0 67 0;
#X connect 71 0 97 0;
#X connect 72 0 68 0;
#X connect 72 0 69 0;
#X connect 72 0 97 0;
#X connect 73 0 120 0;
#X connect 73 0 75 0;
#X connect 73 0 97 0;
#X connect 75 0 8 1;
#X connect 76 0 77 0;
#X connect 76 0 94 0;
#X connect 76 0 97 0;
#X connect 77 0 7 1;
#X connect 79 0 80 0;
#X connect 79 0 81 0;
#X connect 79 0 85 0;
#X connect 81 0 82 0;
#X connect 82 0 83 0;
#X connect 82 0 101 0;
#X connect 85 0 86 0;
#X connect 85 0 92 0;
#X connect 86 0 91 0;
#X connect 86 0 102 0;
#X connect 87 0 88 0;
#X connect 87 0 89 0;
#X connect 89 0 90 0;
#X connect 89 0 86 1;
#X connect 92 0 87 0;
#X connect 94 0 8 1;
#X connect 96 0 98 0;
#X connect 97 0 106 0;
#X connect 98 0 106 0;
#X connect 99 0 106 0;
#X connect 103 0 99 0;
#X connect 105 0 2 0;
#X connect 105 0 19 0;
#X connect 105 0 28 0;
#X connect 106 0 110 0;
#X connect 106 0 119 0;
#X connect 106 0 118 0;
#X connect 106 1 115 0;
#X connect 106 1 117 0;
#X connect 106 1 118 0;
#X connect 106 2 114 0;
#X connect 106 2 119 0;
#X connect 106 2 117 0;
#X connect 107 0 109 0;
#X connect 108 0 107 0;
#X connect 110 0 107 1;
#X connect 111 0 109 0;
#X connect 112 0 109 0;
#X connect 113 0 111 0;
#X connect 114 0 111 1;
#X connect 115 0 112 1;
#X connect 116 0 112 0;
#X connect 117 0 107 1;
#X connect 118 0 111 1;
#X connect 119 0 112 1;
#X connect 120 0 7 1;
#X connect 121 0 97 0;
#X connect 125 0 45 0;
#X connect 126 0 55 1;
#X connect 127 0 20 0;
#X connect 127 1 20 1;
#X connect 128 0 127 0;
#X connect 129 0 30 0;
#X connect 130 0 62 0;
#X connect 131 0 132 0;
#X connect 133 0 132 0;
#X connect 134 0 135 0;
#X connect 135 0 132 0;
#X connect 138 0 152 0;
#X connect 139 0 138 0;
#X connect 139 0 151 0;
#X connect 140 0 152 0;
#X connect 141 0 149 0;
#X connect 142 0 143 0;
#X connect 143 0 149 0;
#X connect 144 0 141 0;
#X connect 144 0 142 0;
#X connect 145 0 150 0;
#X connect 146 0 147 0;
#X connect 147 0 150 0;
#X connect 148 0 145 0;
#X connect 148 0 146 0;
#X connect 149 0 134 0;
#X connect 150 0 134 0;
#X connect 151 0 140 0;
#X connect 152 0 134 0;
#X coords 0 755 1 754 85 60 0;
