#N canvas 647 431 450 300 10;
#X obj 99 42 inlet;
#X obj 100 231 outlet;
#X obj 100 121 float;
#X obj 141 121 + 1;
#X obj 100 154 mod 128;
#X floatatom 221 212 5 0 0 0 - - -, f 5;
#X obj 277 40 inlet;
#X text 276 62 upper limit;
#X obj 185 41 inlet;
#X floatatom 351 149 5 0 0 0 - - -, f 5;
#X text 155 59 sets value change on next bang;
#X obj 355 92 loadbang;
#X obj 351 124 float \$1;
#X connect 0 0 2 0;
#X connect 2 0 3 0;
#X connect 2 0 4 0;
#X connect 3 0 2 1;
#X connect 4 0 1 0;
#X connect 4 0 5 0;
#X connect 6 0 4 1;
#X connect 8 0 2 1;
#X connect 11 0 12 0;
#X connect 12 0 9 0;
#X connect 12 0 4 1;
