#N canvas 928 339 706 494 10;
#X obj 93 76 inlet;
#X obj 96 198 >=;
#X obj 96 247 sel 1;
#X obj 97 288 outlet;
#X obj 293 72 inlet;
#X obj 262 123 loadbang;
#X obj 262 171 f \$1;
#X floatatom 263 208 5 0 0 0 - - -;
#X obj 125 166 random;
#X obj 96 108 t f b;
#X connect 0 0 9 0;
#X connect 1 0 2 0;
#X connect 2 0 3 0;
#X connect 4 0 8 1;
#X connect 5 0 6 0;
#X connect 6 0 7 0;
#X connect 6 0 8 1;
#X connect 8 0 1 1;
#X connect 9 0 1 0;
#X connect 9 1 8 0;
