#N canvas 0 23 450 300 10;
#X msg 140 162 set \$1;
#X obj 140 118 +;
#X obj 256 103 float \$1;
#X obj 252 76 loadbang;
#X obj 139 204 outlet;
#X floatatom 257 182 5 0 0 0 - - -;
#X obj 110 28 inlet;
#X obj 110 63 * 16;
#X obj 103 141 t b f;
#X connect 0 0 4 0;
#X connect 1 0 8 0;
#X connect 2 0 5 0;
#X connect 2 0 1 1;
#X connect 3 0 2 0;
#X connect 6 0 7 0;
#X connect 7 0 1 0;
#X connect 8 0 4 0;
#X connect 8 1 0 0;
