#N canvas 32 23 1102 692 10;
#X obj 881 135 outlet;
#X obj 960 136 outlet;
#X obj 852 74 r towriteprst-\$0;
#X obj 960 74 r towriteindex-\$0;
#X obj 347 115 sel 0 1 2 3 4 5 6 7 8 9 10 11 12 13 14 15;
#X obj 25 221 t f b;
#X msg 52 246 0;
#X obj 26 190 100;
#X obj 26 298 s towriteprst-\$0;
#X obj 52 271 s towriteindex-\$0;
#X obj 88 378 t f b;
#X msg 115 402 1;
#X obj 87 448 s towriteprst-\$0;
#X obj 115 424 s towriteindex-\$0;
#X obj 65 6 inlet;
#X obj 64 64 until;
#X msg 64 40 16;
#X obj 54 87 mcounter 16;
#X text 152 17 feed it a bang \, get a slow half beat kick pattern
;
#X obj 86 525 t f b;
#X obj 85 595 s towriteprst-\$0;
#X obj 113 571 s towriteindex-\$0;
#X msg 113 549 2;
#X obj 82 663 t f b;
#X obj 81 733 s towriteprst-\$0;
#X obj 109 709 s towriteindex-\$0;
#X obj 86 495 random 10;
#X obj 88 348 random 4;
#X obj 82 633 random 4;
#X msg 108 687 3;
#X obj 350 253 t f b;
#X obj 351 330 s towriteprst-\$0;
#X obj 377 303 s towriteindex-\$0;
#X msg 377 278 4;
#X obj 358 406 t f b;
#X obj 359 483 s towriteprst-\$0;
#X obj 385 456 s towriteindex-\$0;
#X obj 362 563 t f b;
#X obj 363 640 s towriteprst-\$0;
#X obj 389 613 s towriteindex-\$0;
#X msg 385 431 5;
#X msg 389 588 6;
#X obj 361 707 t f b;
#X obj 362 784 s towriteprst-\$0;
#X obj 388 757 s towriteindex-\$0;
#X msg 388 732 7;
#X obj 359 375 random 4;
#X obj 362 676 random 5;
#X obj 515 254 t f b;
#X obj 516 331 s towriteprst-\$0;
#X obj 542 304 s towriteindex-\$0;
#X obj 516 223 random 10;
#X msg 542 279 8;
#X obj 351 222 random 75;
#X obj 363 532 random 70;
#X obj 520 400 t f b;
#X obj 521 477 s towriteprst-\$0;
#X obj 547 450 s towriteindex-\$0;
#X obj 521 369 random 10;
#X msg 546 425 9;
#X obj 571 548 t f b;
#X obj 572 625 s towriteprst-\$0;
#X obj 598 598 s towriteindex-\$0;
#X obj 572 517 random 10;
#X msg 597 573 10;
#X obj 594 687 t f b;
#X obj 595 764 s towriteprst-\$0;
#X obj 621 737 s towriteindex-\$0;
#X obj 595 656 random 10;
#X msg 620 712 11;
#X obj 683 253 t f b;
#X obj 684 330 s towriteprst-\$0;
#X obj 710 303 s towriteindex-\$0;
#X obj 684 222 random 50;
#X msg 710 278 12;
#X obj 732 398 t f b;
#X obj 733 475 s towriteprst-\$0;
#X obj 759 448 s towriteindex-\$0;
#X obj 733 367 random 10;
#X obj 749 538 t f b;
#X obj 750 615 s towriteprst-\$0;
#X obj 776 588 s towriteindex-\$0;
#X msg 759 423 13;
#X obj 750 507 random 20;
#X msg 776 563 14;
#X obj 787 680 t f b;
#X obj 788 757 s towriteprst-\$0;
#X obj 814 730 s towriteindex-\$0;
#X obj 788 649 random 5;
#X msg 814 705 15;
#X connect 2 0 0 0;
#X connect 3 0 1 0;
#X connect 4 0 7 0;
#X connect 4 1 27 0;
#X connect 4 2 26 0;
#X connect 4 3 28 0;
#X connect 4 4 53 0;
#X connect 4 5 46 0;
#X connect 4 6 54 0;
#X connect 4 7 47 0;
#X connect 4 8 51 0;
#X connect 4 9 58 0;
#X connect 4 10 63 0;
#X connect 4 11 68 0;
#X connect 4 12 73 0;
#X connect 4 13 78 0;
#X connect 4 14 83 0;
#X connect 4 15 88 0;
#X connect 5 0 8 0;
#X connect 5 1 6 0;
#X connect 6 0 9 0;
#X connect 7 0 5 0;
#X connect 10 0 12 0;
#X connect 10 1 11 0;
#X connect 11 0 13 0;
#X connect 14 0 16 0;
#X connect 15 0 17 0;
#X connect 16 0 15 0;
#X connect 17 0 4 0;
#X connect 19 0 20 0;
#X connect 19 1 22 0;
#X connect 22 0 21 0;
#X connect 23 0 24 0;
#X connect 23 1 29 0;
#X connect 26 0 19 0;
#X connect 27 0 10 0;
#X connect 28 0 23 0;
#X connect 29 0 25 0;
#X connect 30 0 31 0;
#X connect 30 1 33 0;
#X connect 33 0 32 0;
#X connect 34 0 35 0;
#X connect 34 1 40 0;
#X connect 37 0 38 0;
#X connect 37 1 41 0;
#X connect 40 0 36 0;
#X connect 41 0 39 0;
#X connect 42 0 43 0;
#X connect 42 1 45 0;
#X connect 45 0 44 0;
#X connect 46 0 34 0;
#X connect 47 0 42 0;
#X connect 48 0 49 0;
#X connect 48 1 52 0;
#X connect 51 0 48 0;
#X connect 52 0 50 0;
#X connect 53 0 30 0;
#X connect 54 0 37 0;
#X connect 55 0 56 0;
#X connect 55 1 59 0;
#X connect 58 0 55 0;
#X connect 59 0 57 0;
#X connect 60 0 61 0;
#X connect 60 1 64 0;
#X connect 63 0 60 0;
#X connect 64 0 62 0;
#X connect 65 0 66 0;
#X connect 65 1 69 0;
#X connect 68 0 65 0;
#X connect 69 0 67 0;
#X connect 70 0 71 0;
#X connect 70 1 74 0;
#X connect 73 0 70 0;
#X connect 74 0 72 0;
#X connect 75 0 76 0;
#X connect 75 1 82 0;
#X connect 78 0 75 0;
#X connect 79 0 80 0;
#X connect 79 1 84 0;
#X connect 82 0 77 0;
#X connect 83 0 79 0;
#X connect 84 0 81 0;
#X connect 85 0 86 0;
#X connect 85 1 89 0;
#X connect 88 0 85 0;
#X connect 89 0 87 0;
