#N canvas 811 98 1749 845 10;
#X obj 58 315 tabwrite \$1;
#X obj 1540 47 inlet;
#X msg 97 283 160;
#X obj 1541 84 s \$0-prstnumber;
#X obj 104 228 r \$0-prstnumber;
#X obj 186 312 tabwrite \$1;
#X msg 245 279 161;
#X obj 236 228 r \$0-prstnumber;
#X obj 319 304 tabwrite \$1;
#X msg 369 277 162;
#X obj 368 223 r \$0-prstnumber;
#X obj 455 313 tabwrite \$1;
#X msg 519 278 163;
#X obj 518 224 r \$0-prstnumber;
#X obj 57 458 tabwrite \$1;
#X msg 120 423 164;
#X obj 133 369 r \$0-prstnumber;
#X obj 219 472 tabwrite \$1;
#X msg 281 452 165;
#X obj 281 393 r \$0-prstnumber;
#X obj 393 485 tabwrite \$1;
#X msg 447 455 166;
#X obj 447 367 r \$0-prstnumber;
#X obj 606 472 tabwrite \$1;
#X msg 669 437 167;
#X obj 668 383 r \$0-prstnumber;
#X obj 76 667 tabwrite \$1;
#X msg 85 632 168;
#X obj 84 578 r \$0-prstnumber;
#X obj 276 673 tabwrite \$1;
#X msg 285 638 169;
#X obj 284 584 r \$0-prstnumber;
#X obj 456 672 tabwrite \$1;
#X msg 465 637 170;
#X obj 464 583 r \$0-prstnumber;
#X obj 635 666 tabwrite \$1;
#X msg 644 631 171;
#X obj 643 577 r \$0-prstnumber;
#X obj 89 875 tabwrite \$1;
#X msg 98 840 172;
#X obj 97 786 r \$0-prstnumber;
#X obj 290 873 tabwrite \$1;
#X msg 299 838 173;
#X obj 298 784 r \$0-prstnumber;
#X obj 459 871 tabwrite \$1;
#X msg 468 836 174;
#X obj 467 782 r \$0-prstnumber;
#X obj 648 851 tabwrite \$1;
#X msg 657 816 175;
#X obj 656 762 r \$0-prstnumber;
#X text 1580 49 preset number (0 to 15);
#X floatatom 59 265 5 0 0 0 - - -;
#X floatatom 198 276 5 0 0 0 - - -;
#X floatatom 329 256 5 0 0 0 - - -;
#X floatatom 474 260 5 0 0 0 - - -;
#X floatatom 54 409 5 0 0 0 - - -;
#X floatatom 219 441 5 0 0 0 - - -;
#X floatatom 388 455 5 0 0 0 - - -;
#X floatatom 572 437 5 0 0 0 - - -;
#X floatatom 46 606 5 0 0 0 - - -;
#X floatatom 210 618 5 0 0 0 - - -;
#X floatatom 404 609 5 0 0 0 - - -;
#X floatatom 595 605 5 0 0 0 - - -;
#X floatatom 61 809 5 0 0 0 - - -;
#X floatatom 239 816 5 0 0 0 - - -;
#X floatatom 413 818 5 0 0 0 - - -;
#X floatatom 592 798 5 0 0 0 - - -;
#X obj 711 409 prstnumber 7;
#X obj 459 408 prstnumber 6;
#X obj 104 253 prstnumber 0;
#X obj 236 253 prstnumber 1;
#X obj 368 248 prstnumber 2;
#X obj 518 249 prstnumber 3;
#X obj 119 394 prstnumber 4;
#X obj 281 418 prstnumber 5;
#X obj 84 603 prstnumber 8;
#X obj 284 609 prstnumber 9;
#X obj 464 608 prstnumber 10;
#X obj 643 602 prstnumber 11;
#X obj 97 811 prstnumber 12;
#X obj 298 809 prstnumber 13;
#X obj 467 807 prstnumber 14;
#X obj 656 787 prstnumber 15;
#X msg 52 185 set \$1;
#X msg 196 186 set \$1;
#X msg 329 187 set \$1;
#X msg 471 205 set \$1;
#X msg 50 382 set \$1;
#X msg 221 406 set \$1;
#X msg 389 411 set \$1;
#X msg 570 398 set \$1;
#X msg 47 555 set \$1;
#X msg 208 567 set \$1;
#X msg 397 567 set \$1;
#X msg 592 559 set \$1;
#X msg 63 745 set \$1;
#X msg 214 767 set \$1;
#X msg 413 764 set \$1;
#X msg 586 747 set \$1;
#X obj 61 155 r \$0-sldrs0;
#X obj 203 147 r \$0-sldrs1;
#X obj 329 147 r \$0-sldrs2;
#X obj 474 147 r \$0-sldrs3;
#X obj 47 338 r \$0-sldrs4;
#X obj 233 341 r \$0-sldrs5;
#X obj 395 342 r \$0-sldrs6;
#X obj 548 342 r \$0-sldrs7;
#X obj 42 520 r \$0-sldrs8;
#X obj 206 532 r \$0-sldrs9;
#X obj 392 535 r \$0-sldrs10;
#X obj 591 519 r \$0-sldrs11;
#X obj 63 699 r \$0-sldrs12;
#X obj 235 730 r \$0-sldrs13;
#X obj 416 730 r \$0-sldrs14;
#X obj 580 703 r \$0-sldrs15;
#X obj 214 206 r \$0-storepush1;
#X obj 355 195 r \$0-storepush1;
#X obj 552 162 r \$0-storepush1;
#X obj 295 363 r \$0-storepush1;
#X obj 398 387 r \$0-storepush1;
#X obj 639 346 r \$0-storepush1;
#X obj 119 519 r \$0-storepush1;
#X obj 288 528 r \$0-storepush1;
#X obj 478 531 r \$0-storepush1;
#X obj 674 519 r \$0-storepush1;
#X obj 117 745 r \$0-storepush1;
#X obj 328 725 r \$0-storepush1;
#X obj 496 731 r \$0-storepush1;
#X obj 641 717 r \$0-storepush1;
#X obj 73 30 inlet;
#X obj 114 30 inlet;
#X obj 158 30 inlet;
#X obj 202 29 inlet;
#X obj 266 30 inlet;
#X obj 308 30 inlet;
#X obj 351 30 inlet;
#X obj 395 29 inlet;
#X obj 458 30 inlet;
#X obj 499 30 inlet;
#X obj 543 30 inlet;
#X obj 587 29 inlet;
#X obj 646 30 inlet;
#X obj 687 30 inlet;
#X obj 729 29 inlet;
#X obj 775 29 inlet;
#X obj 84 204 r \$0-storepush1;
#X obj 64 359 r \$0-storepush1;
#X obj 58 86 s \$0-sldrs0;
#X obj 132 85 s \$0-sldrs1;
#X obj 152 110 s \$0-sldrs2;
#X obj 225 110 s \$0-sldrs3;
#X obj 252 81 s \$0-sldrs4;
#X obj 326 80 s \$0-sldrs5;
#X obj 346 105 s \$0-sldrs6;
#X obj 419 105 s \$0-sldrs7;
#X obj 441 79 s \$0-sldrs8;
#X obj 515 78 s \$0-sldrs9;
#X obj 535 103 s \$0-sldrs10;
#X obj 616 103 s \$0-sldrs11;
#X obj 630 76 s \$0-sldrs12;
#X obj 716 77 s \$0-sldrs13;
#X obj 724 100 s \$0-sldrs14;
#X obj 805 100 s \$0-sldrs15;
#X obj 1027 34 inlet;
#X text 1088 70 get the push trigger to store presets;
#X obj 1026 101 s \$0-storepush1;
#X text 1069 248 putting loads of sends and receive to fix my patch
so all is localized with \$0 stuff;
#X connect 1 0 3 0;
#X connect 2 0 0 1;
#X connect 4 0 69 0;
#X connect 6 0 5 1;
#X connect 7 0 70 0;
#X connect 9 0 8 1;
#X connect 10 0 71 0;
#X connect 12 0 11 1;
#X connect 13 0 72 0;
#X connect 15 0 14 1;
#X connect 16 0 73 0;
#X connect 18 0 17 1;
#X connect 19 0 74 0;
#X connect 21 0 20 1;
#X connect 22 0 68 0;
#X connect 24 0 23 1;
#X connect 25 0 67 0;
#X connect 27 0 26 1;
#X connect 28 0 75 0;
#X connect 30 0 29 1;
#X connect 31 0 76 0;
#X connect 33 0 32 1;
#X connect 34 0 77 0;
#X connect 36 0 35 1;
#X connect 37 0 78 0;
#X connect 39 0 38 1;
#X connect 40 0 79 0;
#X connect 42 0 41 1;
#X connect 43 0 80 0;
#X connect 45 0 44 1;
#X connect 46 0 81 0;
#X connect 48 0 47 1;
#X connect 49 0 82 0;
#X connect 51 0 0 0;
#X connect 51 0 2 0;
#X connect 52 0 5 0;
#X connect 52 0 6 0;
#X connect 53 0 8 0;
#X connect 53 0 9 0;
#X connect 54 0 11 0;
#X connect 54 0 12 0;
#X connect 55 0 14 0;
#X connect 55 0 15 0;
#X connect 56 0 17 0;
#X connect 56 0 18 0;
#X connect 57 0 20 0;
#X connect 57 0 21 0;
#X connect 58 0 23 0;
#X connect 58 0 24 0;
#X connect 59 0 26 0;
#X connect 59 0 27 0;
#X connect 60 0 29 0;
#X connect 60 0 30 0;
#X connect 61 0 32 0;
#X connect 61 0 33 0;
#X connect 62 0 35 0;
#X connect 62 0 36 0;
#X connect 63 0 38 0;
#X connect 63 0 39 0;
#X connect 64 0 41 0;
#X connect 64 0 42 0;
#X connect 65 0 44 0;
#X connect 65 0 45 0;
#X connect 66 0 47 0;
#X connect 66 0 48 0;
#X connect 67 0 24 0;
#X connect 68 0 21 0;
#X connect 69 0 2 0;
#X connect 70 0 6 0;
#X connect 71 0 9 0;
#X connect 72 0 12 0;
#X connect 73 0 15 0;
#X connect 74 0 18 0;
#X connect 75 0 27 0;
#X connect 76 0 30 0;
#X connect 77 0 33 0;
#X connect 78 0 36 0;
#X connect 79 0 39 0;
#X connect 80 0 42 0;
#X connect 81 0 45 0;
#X connect 82 0 48 0;
#X connect 83 0 51 0;
#X connect 84 0 52 0;
#X connect 85 0 53 0;
#X connect 86 0 54 0;
#X connect 87 0 55 0;
#X connect 88 0 56 0;
#X connect 89 0 57 0;
#X connect 90 0 58 0;
#X connect 91 0 59 0;
#X connect 92 0 60 0;
#X connect 93 0 61 0;
#X connect 94 0 62 0;
#X connect 95 0 63 0;
#X connect 96 0 64 0;
#X connect 97 0 65 0;
#X connect 98 0 66 0;
#X connect 99 0 83 0;
#X connect 100 0 84 0;
#X connect 101 0 85 0;
#X connect 102 0 86 0;
#X connect 103 0 87 0;
#X connect 104 0 88 0;
#X connect 105 0 89 0;
#X connect 106 0 90 0;
#X connect 107 0 91 0;
#X connect 108 0 92 0;
#X connect 109 0 93 0;
#X connect 110 0 94 0;
#X connect 111 0 95 0;
#X connect 112 0 96 0;
#X connect 113 0 97 0;
#X connect 114 0 98 0;
#X connect 115 0 52 0;
#X connect 116 0 53 0;
#X connect 117 0 54 0;
#X connect 118 0 56 0;
#X connect 119 0 57 0;
#X connect 120 0 58 0;
#X connect 121 0 59 0;
#X connect 122 0 60 0;
#X connect 123 0 61 0;
#X connect 124 0 62 0;
#X connect 125 0 63 0;
#X connect 126 0 64 0;
#X connect 127 0 65 0;
#X connect 128 0 66 0;
#X connect 129 0 147 0;
#X connect 130 0 148 0;
#X connect 131 0 149 0;
#X connect 132 0 150 0;
#X connect 133 0 151 0;
#X connect 134 0 152 0;
#X connect 135 0 153 0;
#X connect 136 0 154 0;
#X connect 137 0 155 0;
#X connect 138 0 156 0;
#X connect 139 0 157 0;
#X connect 140 0 158 0;
#X connect 141 0 159 0;
#X connect 142 0 160 0;
#X connect 143 0 161 0;
#X connect 144 0 162 0;
#X connect 145 0 51 0;
#X connect 146 0 55 0;
#X connect 163 0 165 0;
#X coords 0 0 2 1 0 0 0;
