#N canvas 1218 108 699 388 10;
#X obj 91 169 &&;
#X obj 185 172 &&;
#X obj 271 172 &&;
#X obj 362 172 &&;
#X obj 311 30 inlet;
#X obj 330 351 outlet;
#X obj 451 171 &&;
#X obj 539 172 &&;
#X obj 621 171 &&;
#X obj 645 139 <= 127;
#X obj 34 139 <= 5;
#X obj 86 138 > 5;
#X obj 127 139 <= 16;
#X obj 168 140 > 16;
#X obj 209 140 <= 32;
#X obj 254 140 > 32;
#X obj 295 140 <= 48;
#X obj 345 140 > 48;
#X obj 386 140 <= 64;
#X obj 434 139 > 64;
#X obj 475 139 <= 80;
#X obj 522 140 > 80;
#X obj 563 140 <= 96;
#X obj 604 139 > 96;
#X obj 29 243 sel 1;
#X msg 28 277 0;
#X obj 100 245 sel 1;
#X msg 99 279 1;
#X obj 179 247 sel 1;
#X msg 178 281 2;
#X obj 266 246 sel 1;
#X msg 265 280 3;
#X obj 355 249 sel 1;
#X msg 356 279 4;
#X obj 448 251 sel 1;
#X obj 531 249 sel 1;
#X msg 448 281 5;
#X msg 532 279 6;
#X obj 606 250 sel 1;
#X msg 607 280 7;
#X connect 0 0 26 0;
#X connect 1 0 28 0;
#X connect 2 0 30 0;
#X connect 3 0 32 0;
#X connect 4 0 9 0;
#X connect 4 0 10 0;
#X connect 4 0 11 0;
#X connect 4 0 12 0;
#X connect 4 0 13 0;
#X connect 4 0 14 0;
#X connect 4 0 15 0;
#X connect 4 0 16 0;
#X connect 4 0 17 0;
#X connect 4 0 18 0;
#X connect 4 0 19 0;
#X connect 4 0 20 0;
#X connect 4 0 21 0;
#X connect 4 0 22 0;
#X connect 4 0 23 0;
#X connect 6 0 34 0;
#X connect 7 0 35 0;
#X connect 8 0 38 0;
#X connect 9 0 8 1;
#X connect 10 0 24 0;
#X connect 11 0 0 0;
#X connect 12 0 0 1;
#X connect 13 0 1 0;
#X connect 14 0 1 1;
#X connect 15 0 2 0;
#X connect 16 0 2 1;
#X connect 17 0 3 0;
#X connect 18 0 3 1;
#X connect 19 0 6 0;
#X connect 20 0 6 1;
#X connect 21 0 7 0;
#X connect 22 0 7 1;
#X connect 23 0 8 0;
#X connect 24 0 25 0;
#X connect 25 0 5 0;
#X connect 26 0 27 0;
#X connect 27 0 5 0;
#X connect 28 0 29 0;
#X connect 29 0 5 0;
#X connect 30 0 31 0;
#X connect 31 0 5 0;
#X connect 32 0 33 0;
#X connect 33 0 5 0;
#X connect 34 0 36 0;
#X connect 35 0 37 0;
#X connect 36 0 5 0;
#X connect 37 0 5 0;
#X connect 38 0 39 0;
#X connect 39 0 5 0;
