#N canvas 291 185 289 287 10;
#X obj 15 51 inlet;
#X obj 15 78 random 2;
#X obj 15 111 sel 0 1;
#X obj 16 156 outlet;
#X obj 65 157 outlet;
#X text 11 13 decide if there's a bang on the right or left outlet
;
#X connect 0 0 1 0;
#X connect 1 0 2 0;
#X connect 2 0 3 0;
#X connect 2 1 4 0;
