#N canvas 128 23 928 715 10;
#X obj 141 97 until;
#X msg 141 55 16;
#X obj 135 157 mcounter 16;
#X obj 133 187 t b f f;
#X obj 152 222 sel 0 1 2 3 4 5 6 7 8 9 10 11 12 13 14 15;
#X obj 104 344 t f b;
#X obj 211 496 t f b;
#X obj 310 445 t f b;
#X obj 541 412 t f b;
#X msg 131 369 0;
#X msg 239 523 4;
#X msg 341 486 8;
#X msg 567 438 12;
#X obj 105 313 100;
#X obj 476 296 decide;
#X obj 60 421 s towriteprst-\$1;
#X obj 95 395 s towriteindex-\$1;
#X obj 577 158 r towriteprst-\$1;
#X obj 685 158 r towriteindex-\$1;
#X obj 202 551 s towriteprst-\$1;
#X obj 240 588 s towriteindex-\$1;
#X obj 304 523 s towriteprst-\$1;
#X obj 336 553 s towriteindex-\$1;
#X text 627 324 making the main kickdrum patterns here;
#X obj 542 364 random 3;
#X obj 542 387 + 97;
#X obj 552 538 s towriteprst-\$1;
#X obj 662 534 s towriteindex-\$1;
#X obj 447 396 t f b;
#X msg 473 422 12;
#X obj 448 348 random 5;
#X obj 448 371 + 1;
#X msg 424 525 11;
#X msg 474 515 14;
#X msg 643 389 0;
#X msg 664 462 11;
#X obj 399 493 t f b;
#X obj 447 490 t f b;
#X obj 643 425 t f b;
#X obj 286 358 random 2;
#X obj 286 381 + 98;
#X obj 175 664 t f b;
#X obj 131 741 s towriteprst-\$1;
#X obj 201 712 s towriteindex-\$1;
#X msg 202 689 2;
#X obj 348 668 t f b;
#X obj 304 745 s towriteprst-\$1;
#X obj 374 716 s towriteindex-\$1;
#X msg 375 693 6;
#X obj 523 666 t f b;
#X obj 513 739 s towriteprst-\$1;
#X obj 549 714 s towriteindex-\$1;
#X msg 550 691 10;
#X obj 674 667 t f b;
#X obj 664 740 s towriteprst-\$1;
#X obj 700 715 s towriteindex-\$1;
#X msg 701 692 14;
#X text 806 669 offbeat strata 1;
#X obj 523 641 random 25;
#X obj 212 288 random 3;
#X obj 212 311 + 97;
#X obj 151 825 t f b;
#X obj 107 902 s towriteprst-\$1;
#X obj 177 873 s towriteindex-\$1;
#X text 806 836 offbeat strata 2;
#X obj 151 800 random 15;
#X msg 178 850 3;
#X obj 323 827 t f b;
#X obj 279 904 s towriteprst-\$1;
#X obj 349 875 s towriteindex-\$1;
#X msg 350 852 7;
#X obj 323 802 random 20;
#X obj 538 821 t f b;
#X obj 494 898 s towriteprst-\$1;
#X obj 564 869 s towriteindex-\$1;
#X msg 565 846 13;
#X obj 671 823 t f b;
#X obj 627 900 s towriteprst-\$1;
#X obj 697 871 s towriteindex-\$1;
#X msg 698 848 15;
#X obj 538 796 random 30;
#X obj 671 798 random 30;
#X obj 674 642 random 50;
#X obj 370 336 random 3;
#X obj 372 361 + 97;
#X obj 348 643 random 45;
#X obj 175 639 random 40;
#X obj 606 219 outlet;
#X obj 685 220 outlet;
#X connect 0 0 2 0;
#X connect 1 0 0 0;
#X connect 2 0 3 0;
#X connect 3 1 4 0;
#X connect 4 0 13 0;
#X connect 4 2 86 0;
#X connect 4 3 65 0;
#X connect 4 4 59 0;
#X connect 4 6 85 0;
#X connect 4 7 71 0;
#X connect 4 8 39 0;
#X connect 4 10 58 0;
#X connect 4 12 14 0;
#X connect 4 13 80 0;
#X connect 4 14 82 0;
#X connect 4 15 81 0;
#X connect 5 0 15 0;
#X connect 5 1 9 0;
#X connect 6 0 19 0;
#X connect 6 1 10 0;
#X connect 7 0 21 0;
#X connect 7 1 11 0;
#X connect 8 0 26 0;
#X connect 8 1 12 0;
#X connect 9 0 16 0;
#X connect 10 0 20 0;
#X connect 11 0 22 0;
#X connect 12 0 27 0;
#X connect 13 0 5 0;
#X connect 14 0 30 0;
#X connect 14 0 83 0;
#X connect 14 1 24 0;
#X connect 14 1 34 0;
#X connect 17 0 87 0;
#X connect 18 0 88 0;
#X connect 24 0 25 0;
#X connect 25 0 8 0;
#X connect 28 0 26 0;
#X connect 28 1 29 0;
#X connect 29 0 27 0;
#X connect 30 0 31 0;
#X connect 31 0 28 0;
#X connect 32 0 27 0;
#X connect 33 0 27 0;
#X connect 34 0 38 0;
#X connect 35 0 27 0;
#X connect 36 0 26 0;
#X connect 36 1 32 0;
#X connect 37 0 26 0;
#X connect 37 1 33 0;
#X connect 38 0 26 0;
#X connect 38 1 35 0;
#X connect 39 0 40 0;
#X connect 40 0 7 0;
#X connect 41 0 42 0;
#X connect 41 1 44 0;
#X connect 44 0 43 0;
#X connect 45 0 46 0;
#X connect 45 1 48 0;
#X connect 48 0 47 0;
#X connect 49 0 50 0;
#X connect 49 1 52 0;
#X connect 52 0 51 0;
#X connect 53 0 54 0;
#X connect 53 1 56 0;
#X connect 56 0 55 0;
#X connect 58 0 49 0;
#X connect 59 0 60 0;
#X connect 60 0 6 0;
#X connect 61 0 62 0;
#X connect 61 1 66 0;
#X connect 65 0 61 0;
#X connect 66 0 63 0;
#X connect 67 0 68 0;
#X connect 67 1 70 0;
#X connect 70 0 69 0;
#X connect 71 0 67 0;
#X connect 72 0 73 0;
#X connect 72 1 75 0;
#X connect 75 0 74 0;
#X connect 76 0 77 0;
#X connect 76 1 79 0;
#X connect 79 0 78 0;
#X connect 80 0 72 0;
#X connect 81 0 76 0;
#X connect 82 0 53 0;
#X connect 83 0 84 0;
#X connect 84 0 36 0;
#X connect 84 0 37 0;
#X connect 85 0 45 0;
#X connect 86 0 41 0;
