#N canvas 797 91 1763 783 10;
#X obj 283 113 vsl 12 80 0 100 0 0 \$0-sldrs12 \$0-sldrr12 empty 0
-9 0 10 -228856 -1 -1 6200 1;
#X obj 298 113 vsl 12 80 0 100 0 0 \$0-sldrs13 \$0-sldrr13 empty 0
-9 0 10 -262144 -1 -1 0 1;
#X obj 135 113 vsl 12 80 0 100 0 0 \$0-sldrs2 \$0-sldrr2 empty 0 -9
0 10 -262144 -1 -1 0 1;
#X obj 149 113 vsl 12 80 0 100 0 0 \$0-sldrs3 \$0-sldrr3 empty 0 -9
0 10 -262144 -1 -1 5500 1;
#X floatatom 371 154 5 0 15 0 - - -;
#X obj 751 270 array define -k -yrange 0 100 seq1prst 256;
#A 0 100 0 0 69.6203 0 0 69.6203 0 21.519 0 15.1899 8.86076 78.481
0 0 0 100 0 7.59494 0 40.5063 72.1519 60.7595 59.4937 0 10.1266 97.4684
62.0253 86.076 0 74.6835 15.1899 100 0 100 0 100 0 0 36.7089 17.7215
0 74.6835 0 100 0 0 0 100 0 0 21.519 0 0 100 0 100 74.6835 72.1519
72.1519 92.4051 82.2785 79.7468 72.1519 100 0 0 11.3924 100 7.59494
0 0 100 0 0 100 0 0 96.2025 3.79747 100 0 0 100 0 56.962 100 55.6962
100 0 0 0 100 0 70.8861 0 100 0 0 0 100 0 89.8734 24.0506 100 0 40.5063
62.0253 100 6.32911 29.1139 1.26582 100 34.1772 29.1139 17.7215 100
0 39.2405 0 100 0 0 8.86076 94.9367 0 21.519 0 100 32.9114 22.7848
27.8481 100 0 48.1013 40.5063 100 13.9241 45.5696 24.0506 100 49.3671
13.9241 50.6329 100 79.7468 82.2785 11.3924 0 0 84.8101 68.3544 100
0 60.7595 81.0127 0 65.8228 67.0886 73.4177 100 40.5063 45.5696 50.6329
100 34.1772 22.7848 37.9747 100 43.038 46.8354 54.4304 100 39.2405
49.3671 68.3544 100 0 40.5063 0 100 0 0 0 100 0 22.7848 100 0 0 100
0 0 0 0 0 0 0 0 0 0 0 0 0 0 0 0 0 0 0 0 0 0 0 0 0 0 0 0 0 0 0 0 0 0
0 0 0 0 0 0 0 0 0 0 0 0 0 0 0 0 0 0 0 0 0 0 0 0 0 0 0 0 0 0 0;
#X text 370 136 set prsts (0- 15);
#X obj 102 201 hradio 15 1 0 16 empty empty empty 0 -8 0 10 -228856
-260097 -1 12;
#X floatatom 371 118 5 0 15 0 - - -;
#X obj 752 293 array define -yrange 0 100 seq1live 16;
#X obj 416 171 bng 15 250 50 0 \$0-storepush1 empty empty 17 7 0 10
-262144 -258113 -1;
#X obj 103 113 vsl 12 80 0 100 0 0 \$0-sldrs0 \$0-sldrr0 empty 0 -9
0 10 -228856 -1 -1 7900 1;
#X obj 119 113 vsl 12 80 0 100 0 0 \$0-sldrs1 \$0-sldrr1 empty 0 -9
0 10 -262144 -1 -1 0 1;
#X obj 194 113 vsl 12 80 0 100 0 0 \$0-sldrs6 \$0-sldrr6 empty 0 -9
0 10 -262144 -1 -1 5500 1;
#X obj 209 113 vsl 12 80 0 100 0 0 \$0-sldrs7 \$0-sldrr7 empty 0 -9
0 10 -262144 -1 -1 0 1;
#X obj 165 113 vsl 12 80 0 100 0 0 \$0-sldrs4 \$0-sldrr4 empty 0 -9
0 10 -228856 -1 -1 0 1;
#X obj 179 113 vsl 12 80 0 100 0 0 \$0-sldrs5 \$0-sldrr5 empty 0 -9
0 10 -262144 -1 -1 0 1;
#X obj 252 113 vsl 12 80 0 100 0 0 \$0-sldrs10 \$0-sldrr10 empty 0
-9 0 10 -262144 -1 -1 1200 1;
#X obj 267 113 vsl 12 80 0 100 0 0 \$0-sldrs11 \$0-sldrr11 empty 0
-9 0 10 -262144 -1 -1 700 1;
#X obj 223 113 vsl 12 80 0 100 0 0 \$0-sldrs8 \$0-sldrr8 empty 0 -9
0 10 -228856 -1 -1 1700 1;
#X obj 237 113 vsl 12 80 0 100 0 0 \$0-sldrs9 \$0-sldrr9 empty 0 -9
0 10 -262144 -1 -1 0 1;
#X obj 313 113 vsl 12 80 0 100 0 0 \$0-sldrs14 \$0-sldrr14 empty 0
-9 0 10 -262144 -1 -1 0 1;
#X obj 329 113 vsl 12 80 0 100 0 0 \$0-sldrs15 \$0-sldrr15 empty 0
-9 0 10 -262144 -1 -1 0 1;
#X text 368 102 get prsts (0- 15);
#X text 435 153 store;
#X obj 165 280 writelivetable seq1live;
#X obj 100 33 inlet;
#X text 139 33 step nbr;
#X obj 95 323 tabread seq1live;
#X obj 96 663 outlet;
#X obj 507 44 loadbang;
#X msg 506 69 0;
#X text 537 69 load preset nO 0;
#X obj 269 34 inlet;
#X text 315 34 select preset;
#X msg 390 267 0;
#X obj 391 234 bng 15 250 50 0 empty empty empty 17 7 0 10 -262144
-1 -1;
#X text 409 234 clear pattern;
#X msg 751 245 write seq1presets.txt;
#X obj 513 143 r \$0-getpreset;
#X obj 1494 390 s \$0-getpreset;
#X obj 674 86 loadbang;
#X obj 670 125 f \$0;
#X floatatom 672 166 5 0 0 0 - - -;
#X obj 270 481 r \$0-sldrs0;
#X obj 345 481 r \$0-sldrs1;
#X obj 419 481 r \$0-sldrs2;
#X obj 492 481 r \$0-sldrs3;
#X obj 566 481 r \$0-sldrs4;
#X obj 641 481 r \$0-sldrs5;
#X obj 715 481 r \$0-sldrs6;
#X obj 788 481 r \$0-sldrs7;
#X obj 863 481 r \$0-sldrs8;
#X obj 938 481 r \$0-sldrs9;
#X obj 1012 481 r \$0-sldrs10;
#X obj 1092 481 r \$0-sldrs11;
#X obj 1172 481 r \$0-sldrs12;
#X obj 1250 481 r \$0-sldrs13;
#X obj 1328 481 r \$0-sldrs14;
#X obj 1406 481 r \$0-sldrs15;
#X obj 978 671 writepresets seq1prst dummytext;
#X obj 1428 520 r \$0-storepush1;
#X obj 1531 520 r \$0-getpreset;
#X obj 770 356 getpresets seq1prst dummytext;
#X obj 271 444 s \$0-sldrr0;
#X obj 344 444 s \$0-sldrr1;
#X obj 417 444 s \$0-sldrr2;
#X obj 567 444 s \$0-sldrr4;
#X obj 642 444 s \$0-sldrr5;
#X obj 716 445 s \$0-sldrr6;
#X obj 791 445 s \$0-sldrr7;
#X obj 490 444 s \$0-sldrr3;
#X obj 869 445 s \$0-sldrr8;
#X obj 944 445 s \$0-sldrr9;
#X obj 1018 445 s \$0-sldrr10;
#X obj 1098 445 s \$0-sldrr11;
#X obj 1178 445 s \$0-sldrr12;
#X obj 1256 445 s \$0-sldrr13;
#X obj 1334 445 s \$0-sldrr14;
#X obj 1412 445 s \$0-sldrr15;
#X text 822 44 using an array to store presets (16 max here) pushing
the sliders values to a "live" array which is read continuously NOTE:
if you want to use several sequencers \, just duplicate the patch and
CHANGE THE NAMES OF THE ARRAYS AND THE OBJECTS READING FROM AND WRITING
TO THEM;
#X obj 153 663 outlet;
#X obj 154 615 probgate 100;
#X obj 453 173 bng 45 50 50 0 empty empty empty 17 7 0 10 -262144 -258113
-1;
#X obj 449 286 s \$0-towritepresets;
#X obj 1627 519 r \$0-towritepresets;
#X obj 518 179 s \$0-storepush1;
#X text 358 587 make velocity;
#X connect 0 0 25 12;
#X connect 1 0 25 13;
#X connect 2 0 25 2;
#X connect 3 0 25 3;
#X connect 8 0 63 0;
#X connect 10 0 86 0;
#X connect 11 0 25 0;
#X connect 12 0 25 1;
#X connect 13 0 25 6;
#X connect 14 0 25 7;
#X connect 15 0 25 4;
#X connect 16 0 25 5;
#X connect 17 0 25 10;
#X connect 18 0 25 11;
#X connect 19 0 25 8;
#X connect 20 0 25 9;
#X connect 21 0 25 14;
#X connect 22 0 25 15;
#X connect 26 0 7 0;
#X connect 26 0 28 0;
#X connect 28 0 29 0;
#X connect 28 0 82 0;
#X connect 30 0 31 0;
#X connect 31 0 8 0;
#X connect 33 0 8 0;
#X connect 36 0 35 0;
#X connect 38 0 5 0;
#X connect 39 0 4 0;
#X connect 41 0 42 0;
#X connect 42 0 43 0;
#X connect 44 0 60 0;
#X connect 45 0 60 1;
#X connect 46 0 60 2;
#X connect 47 0 60 3;
#X connect 48 0 60 4;
#X connect 49 0 60 5;
#X connect 50 0 60 6;
#X connect 51 0 60 7;
#X connect 52 0 60 8;
#X connect 53 0 60 9;
#X connect 54 0 60 10;
#X connect 55 0 60 11;
#X connect 56 0 60 12;
#X connect 57 0 60 13;
#X connect 58 0 60 14;
#X connect 59 0 60 15;
#X connect 61 0 60 16;
#X connect 62 0 60 17;
#X connect 63 0 64 0;
#X connect 63 1 65 0;
#X connect 63 2 66 0;
#X connect 63 3 71 0;
#X connect 63 4 67 0;
#X connect 63 5 68 0;
#X connect 63 6 69 0;
#X connect 63 7 70 0;
#X connect 63 8 72 0;
#X connect 63 9 73 0;
#X connect 63 10 74 0;
#X connect 63 11 75 0;
#X connect 63 12 76 0;
#X connect 63 13 77 0;
#X connect 63 14 78 0;
#X connect 63 15 79 0;
#X connect 63 16 40 0;
#X connect 82 0 81 0;
#X connect 82 0 83 0;
#X coords 0 -1 1 1 400 120 1 100 100;
