#N canvas 939 370 1318 683 10;
#X obj 697 395 tabwrite \$1;
#X text 501 200 put name of the live table in argument 1;
#X obj 94 87 inlet;
#X msg 120 109 0;
#X obj 160 88 inlet;
#X msg 192 110 1;
#X obj 226 85 inlet;
#X msg 258 107 2;
#X obj 300 84 inlet;
#X msg 326 113 3;
#X obj 364 85 inlet;
#X msg 391 114 4;
#X obj 438 85 inlet;
#X msg 465 114 5;
#X obj 500 82 inlet;
#X msg 527 111 6;
#X obj 565 81 inlet;
#X msg 604 110 7;
#X obj 645 80 inlet;
#X msg 684 109 8;
#X obj 729 84 inlet;
#X obj 795 85 inlet;
#X obj 861 82 inlet;
#X obj 935 81 inlet;
#X obj 999 82 inlet;
#X obj 1073 82 inlet;
#X obj 1153 78 inlet;
#X msg 755 114 9;
#X msg 827 107 10;
#X msg 893 104 11;
#X msg 961 110 12;
#X msg 1026 111 13;
#X msg 1100 111 14;
#X msg 1162 108 15;
#X connect 2 0 3 0;
#X connect 2 0 0 0;
#X connect 3 0 0 1;
#X connect 4 0 5 0;
#X connect 4 0 0 0;
#X connect 5 0 0 1;
#X connect 6 0 7 0;
#X connect 6 0 0 0;
#X connect 7 0 0 1;
#X connect 8 0 9 0;
#X connect 8 0 0 0;
#X connect 9 0 0 1;
#X connect 10 0 11 0;
#X connect 10 0 0 0;
#X connect 11 0 0 1;
#X connect 12 0 13 0;
#X connect 12 0 0 0;
#X connect 13 0 0 1;
#X connect 14 0 15 0;
#X connect 14 0 0 0;
#X connect 15 0 0 1;
#X connect 16 0 17 0;
#X connect 16 0 0 0;
#X connect 17 0 0 1;
#X connect 18 0 19 0;
#X connect 18 0 0 0;
#X connect 19 0 0 1;
#X connect 20 0 27 0;
#X connect 20 0 0 0;
#X connect 21 0 28 0;
#X connect 21 0 0 0;
#X connect 22 0 29 0;
#X connect 22 0 0 0;
#X connect 23 0 30 0;
#X connect 23 0 0 0;
#X connect 24 0 31 0;
#X connect 24 0 0 0;
#X connect 25 0 32 0;
#X connect 25 0 0 0;
#X connect 26 0 33 0;
#X connect 26 0 0 0;
#X connect 27 0 0 1;
#X connect 28 0 0 1;
#X connect 29 0 0 1;
#X connect 30 0 0 1;
#X connect 31 0 0 1;
#X connect 32 0 0 1;
#X connect 33 0 0 1;
